<svg height="800" viewBox="0 0 800 800" width="800" xmlns="http://www.w3.org/2000/svg"><g fill="none" fill-rule="evenodd"><rect fill="#fff" height="780" rx="150" stroke="#fff" stroke-width="20" width="780" x="10" y="10"/><g fill="#000"><rect height="220" rx="20" width="306" x="247" y="242"/><path d="m577.032897 237.613426 147-45.951053c10.542618-3.295541 21.760661 2.579377 25.056201 13.121995.603771 1.931496.910902 3.943439.910902 5.967103v282.497058c0 11.045695-8.954305 20-20 20-2.023664 0-4.035607-.307131-5.967103-.910902l-147-45.951053c-8.348693-2.609736-14.032897-10.342019-14.032897-19.089098v-190.594952c0-8.747079 5.684204-16.479362 14.032897-19.089098z"/><path d="m64.0328967 237.613426 147.0000003-45.951053c10.542618-3.295541 21.760661 2.579377 25.056201 13.121995.603771 1.931496.910902 3.943439.910902 5.967103v282.497058c0 11.045695-8.954305 20-20 20-2.023664 0-4.035607-.307131-5.967103-.910902l-147.0000003-45.951053c-8.3486927-2.609736-14.0328967-10.342019-14.0328967-19.089098v-190.594952c0-8.747079 5.684204-16.479362 14.0328967-19.089098z" transform="matrix(-1 0 0 1 287 0)"/></g></g></svg>