<?xml version="1.0" encoding="UTF-8" standalone="no"?>
<!-- Created with Inkscape (http://www.inkscape.org/) -->
<svg
   xmlns:svg="http://www.w3.org/2000/svg"
   xmlns="http://www.w3.org/2000/svg"
   version="1.0"
   width="626"
   height="625.94"
   id="svg30165">
  <defs
     id="defs30167" />
  <path
     d="M 626,625.94001 L 5.6843419e-14,625.94001 L 5.6843419e-14,1.4210855e-14 L 626,1.4210855e-14 L 626,625.94001 z"
     id="path27809"
     style="fill:#a5c400;fill-opacity:1;fill-rule:nonzero;stroke:none" />
  <path
     d="M 36.28765,100.6915 L 5.6843419e-14,52.57021 L 5.6843419e-14,43.43025 L 11.74279,34.56264 C 17.0997,30.50712 21.91184,28.20694 26.48182,28.20694 C 31.65712,28.20694 36.56007,31.17294 41.58401,37.83118 C 51.02668,50.3306 49.69505,57.53372 36.62056,67.43031 L 34.16909,69.24627 L 50.0582,90.34089 L 36.28765,100.6915 M 22.57766,43.27895 C 21.00386,43.27895 19.24851,44.24743 16.79704,46.06328 L 26.60287,59.22851 C 31.20316,55.74807 32.5651,53.35715 28.08587,47.39497 C 25.99755,44.58028 24.39357,43.27895 22.57766,43.27895 M 74.1491,72.21221 L 33.47302,18.21949 L 57.65473,1.4210855e-14 L 68.12638,1.4210855e-14 L 72.66611,6.05298 L 56.14149,18.5524 L 62.98133,27.78329 L 76.75188,17.43262 L 85.52874,28.93326 L 71.78844,39.28392 L 79.65731,49.8767 L 97.15047,36.68109 L 105.92727,48.30283 L 74.1491,72.21221 z M 114.40147,39.10232 C 106.8655,39.10232 99.99535,32.29272 89.46315,18.34061 C 84.07599,11.22835 80.47449,5.20556 78.68883,1.4210855e-14 L 98.99663,1.4210855e-14 L 113.6751,19.46039 C 115.18834,21.42759 116.67134,22.27502 118.09377,22.27502 C 119.06225,22.27502 119.90968,21.88161 120.78735,21.27623 C 123.05722,19.58144 123.60204,17.09972 121.12026,13.95217 L 117.18585,8.53471 L 113.55405,11.22835 L 106.04832,1.08954 L 107.50107,1.4210855e-14 L 133.04466,1.4210855e-14 L 146.36125,17.76553 L 139.15819,23.183 L 134.86056,21.94211 C 133.89208,26.66345 131.62222,30.41632 127.35484,33.53355 C 122.45196,37.22591 118.33594,39.10232 114.40147,39.10232 M 11.95465,233.52446 L 5.6843419e-14,217.63533 L 5.6843419e-14,189.00468 L 2.26987,191.94043 C 6.77935,188.58097 8.23204,186.19005 3.75287,180.13707 C 2.36067,178.32117 1.18034,177.14083 5.6843419e-14,176.59607 L 5.6843419e-14,161.19121 C 0.72638,161.07016 1.45269,161.0096 2.11857,161.0096 C 7.32412,161.0096 12.22706,163.94528 17.251,170.69439 C 26.60287,183.16356 25.36204,190.39694 12.28756,200.20271 L 9.80584,202.07918 L 25.69495,223.14361 L 11.95465,233.52446 M 49.8161,205.04511 L 9.04922,150.93141 L 39.91946,127.74841 L 48.36335,138.91619 L 31.65712,151.38537 L 38.67857,160.49508 L 52.38863,150.17472 L 61.07462,161.76622 L 47.33438,172.11683 L 55.2335,182.7096 L 72.78716,169.5443 L 81.47322,181.16605 L 49.8161,205.04511 z M 90.00791,171.90503 C 82.47194,171.90503 75.51105,165.15587 65.03934,151.17351 C 49.69505,130.7749 48.90812,119.54662 62.64842,109.13552 C 67.43032,105.5642 72.69636,103.35483 77.84141,103.35483 C 80.9587,103.35483 84.01549,104.17201 86.89062,105.98791 C 89.25129,107.59196 91.52115,110.04338 94.7595,114.43181 L 80.56523,125.14563 L 78.20463,121.99803 C 76.72163,120.09138 75.23863,119.30451 73.8162,119.30451 C 72.87797,119.30451 71.87924,119.63742 71.00157,120.30324 C 68.85275,121.99803 68.27768,124.44957 70.66866,127.62729 L 89.25129,152.29329 C 90.73428,154.23025 92.18697,155.04743 93.57922,155.04743 C 94.57795,155.04743 95.51618,154.68421 96.48466,153.98814 C 98.60316,152.41434 99.14793,149.96293 96.81757,146.66403 L 92.7318,141.36761 L 89.13024,144.09144 L 81.56402,133.95275 L 99.39009,120.5151 L 122.02824,150.5985 L 114.70413,156.0159 L 110.52756,154.80532 C 109.52883,159.5266 107.16816,163.12817 102.87054,166.36645 C 98.02815,170.02857 93.94238,171.90503 90.00791,171.90503 M 130.26028,144.30335 L 89.5842,90.34089 L 103.86926,79.50608 L 144.54534,133.61978 L 130.26028,144.30335 z M 170.69425,113.88711 L 130.01817,59.80359 L 146.02834,47.72782 C 151.47605,43.67236 156.31844,41.37218 160.94898,41.37218 C 166.12428,41.37218 170.96667,44.33811 175.9906,51.02678 C 185.46353,63.4959 184.13189,70.72921 171.02716,80.53505 L 168.57569,82.47201 L 184.4648,103.53644 L 170.69425,113.88711 M 157.01451,56.47444 C 155.41046,56.47444 153.59456,57.41267 151.08259,59.22851 L 161.00947,72.2727 C 165.60976,68.9133 167.00195,66.58294 162.49247,60.46941 C 160.40421,57.74552 158.86066,56.47444 157.01451,56.47444 M 208.5557,85.37744 L 167.90987,31.32424 L 198.78012,8.08074 L 207.07271,19.24847 L 190.54808,31.7177 L 197.38793,40.88797 L 211.18872,30.62811 L 219.84453,42.09856 L 206.07398,52.44916 L 214.09416,63.04193 L 231.52676,49.8767 L 240.24307,61.49844 L 208.5557,85.37744 z M 248.77782,52.23737 C 241.2721,52.23737 234.31114,45.4882 223.77894,31.50585 C 213.33754,17.64448 209.67548,8.02019 212.70203,1.4210855e-14 L 231.04255,1.4210855e-14 C 230.61884,0.1513 230.25569,0.36316 229.86222,0.63558 C 227.59235,2.33043 227.01734,4.8424 229.52931,7.95969 L 248.112,32.62569 C 249.56469,34.59283 251.04769,35.41001 252.43988,35.41001 C 253.37811,35.41001 254.34659,35.01654 255.19395,34.35073 C 257.49412,32.74668 258.00864,30.29526 255.55717,26.9963 L 251.50165,21.70001 L 247.99089,24.42383 L 240.33387,14.28508 L 258.12969,0.84737 L 280.79809,30.96102 L 273.44373,36.37849 L 269.29741,35.1376 C 268.26844,39.85894 265.90777,43.46044 261.76144,46.75934 C 256.82824,50.39121 252.74254,52.23737 248.77782,52.23737 M 239.33514,5.47797 L 236.94423,2.33043 C 236.006,1.11978 235.03752,0.36316 234.09929,1.4210855e-14 L 246.6895,1.4210855e-14 L 239.33514,5.47797 M 289.09068,24.66594 L 270.5383,1.4210855e-14 L 292.8133,1.4210855e-14 L 303.31519,13.95217 L 289.09068,24.66594 z M 25.36204,337.75702 L 5.6843419e-14,304.10237 L 5.6843419e-14,272.26361 L 15.55615,260.58131 L 23.9093,271.62804 L 7.32412,284.21827 L 14.22452,293.35829 L 27.96482,283.00769 L 36.74162,294.56888 L 23.00138,304.98004 L 30.87025,315.4517 L 48.36335,302.25621 L 57.14021,313.87796 L 25.36204,337.75702 z M 65.55385,304.67744 C 58.04813,304.67744 51.11749,297.95858 40.58528,284.03666 C 25.24093,263.60786 24.48431,252.34927 38.19436,241.9986 C 42.9762,238.3971 48.27255,236.15755 53.4176,236.15755 C 56.53489,236.15755 59.59169,237.00491 62.40632,238.82088 C 64.79723,240.39462 67.1579,242.90659 70.4568,247.29502 L 56.11118,257.94829 L 53.75051,254.831 C 52.35832,252.89404 50.87538,252.04661 49.45288,252.04661 C 48.45416,252.04661 47.51593,252.44008 46.63825,253.10589 C 44.42894,254.831 43.85387,257.19167 46.30534,260.46032 L 64.91828,285.12625 C 66.40128,287.06321 67.85397,287.88033 69.27647,287.88033 C 70.21464,287.88033 71.12262,287.51711 72.00029,286.82105 C 74.27016,285.12625 74.81492,282.76552 72.3332,279.49699 L 68.27768,274.20057 L 64.79723,276.80335 L 57.14021,266.78565 L 74.93597,253.34806 L 97.57419,283.3406 L 90.25001,288.87906 L 86.10375,287.51711 C 85.07472,292.3595 82.6838,295.93082 78.53753,299.10867 C 73.60434,302.80098 69.48832,304.67744 65.55385,304.67744 M 105.92727,277.13626 L 65.25119,223.14361 L 79.44546,212.33898 L 120.12154,266.42249 L 105.92727,277.13626 z M 146.36125,246.72001 L 105.59436,192.63649 L 121.69534,180.59103 C 127.08249,176.50526 131.95513,174.20508 136.52517,174.20508 C 141.76096,174.20508 146.63366,177.14083 151.6576,183.85969 C 161.00947,196.20781 159.76864,203.56217 146.7244,213.36801 L 144.21244,215.27466 L 160.10155,236.24835 L 146.36125,246.72001 M 132.53014,189.24685 C 130.98665,189.24685 129.20106,190.21533 126.77983,192.06148 L 136.55542,205.13591 C 141.18595,201.74627 142.66894,199.38554 138.03841,193.30237 C 135.95009,190.57842 134.37636,189.24685 132.53014,189.24685 M 184.13189,218.08936 L 143.42557,164.12689 L 174.32606,140.91371 L 182.76995,151.96038 L 166.09397,164.58092 L 172.96412,173.72088 L 186.70442,163.34002 L 195.48122,174.96177 L 181.74098,185.31238 L 189.6401,195.81434 L 207.07271,182.58849 L 215.91006,194.21023 L 184.13189,218.08936 z M 224.29346,185.00971 C 216.81804,185.00971 209.88734,178.29092 199.44593,164.369 C 184.01084,143.97045 183.34502,132.71186 197.05502,122.331 C 201.83691,118.7295 207.13326,116.55038 212.27825,116.55038 C 215.3653,116.55038 218.45234,117.33725 221.29722,119.1834 C 223.65789,120.75726 225.92775,123.23892 229.16616,127.62729 L 215.00214,138.34118 L 212.61122,135.16333 C 211.12823,133.22637 209.67548,132.40919 208.25304,132.40919 C 207.28456,132.40919 206.34633,132.77241 205.37785,133.49879 C 203.25935,135.16333 202.71459,137.55425 205.04495,140.79259 L 223.65789,165.45859 C 225.14088,167.42573 226.62388,168.27322 228.01607,168.27322 C 228.98455,168.27322 229.95302,167.84951 230.89126,167.15344 C 233.00976,165.45859 233.58477,163.12817 231.19385,159.82926 L 227.1384,154.56322 L 223.53683,157.13568 L 216.03111,147.11799 L 233.79669,133.71058 L 256.46509,163.67293 L 249.11073,169.21139 L 244.9644,167.84951 C 243.81438,172.6919 241.57476,176.29347 237.27714,179.47125 C 232.4045,183.16356 228.25817,185.00971 224.29346,185.00971 M 264.66687,157.46865 L 223.99079,103.41532 L 238.18506,92.70156 L 278.98219,146.78508 L 264.66687,157.46865 z M 305.10085,126.96154 L 264.45502,72.99908 L 280.43494,60.92337 C 285.88259,56.83766 290.72504,54.53748 295.35557,54.53748 C 300.53087,54.53748 305.37326,57.50341 310.39726,64.19196 C 319.87013,76.72169 318.53849,83.89445 305.43376,93.70035 L 302.98228,95.63731 L 318.84115,116.58062 L 305.10085,126.96154 M 291.3303,69.60937 C 289.7565,69.60937 288.00115,70.54766 285.51943,72.39381 L 295.41607,85.4985 C 299.92555,82.10879 301.40855,79.74818 296.89907,73.63471 C 294.7805,70.91082 293.20676,69.60937 291.3303,69.60937 M 342.9623,98.54274 L 302.19542,44.48954 L 333.06566,21.27623 L 341.50961,32.29272 L 324.80332,44.9435 L 331.82483,54.05321 L 345.56507,43.67236 L 354.25113,55.2941 L 340.48058,65.67496 L 348.50076,76.14662 L 365.93336,63.04193 L 374.64966,74.54257 L 342.9623,98.54274 z M 383.15417,65.40261 C 375.64845,65.40261 368.74799,58.62325 358.18554,44.70133 C 342.87149,24.30278 342.05432,13.04419 355.79462,2.66334 C 357.15656,1.66455 358.57906,0.75657 360.0015,1.4210855e-14 L 380.67245,1.4210855e-14 C 382.8212,1.57374 384.97008,3.96472 387.936,7.95969 L 373.74174,18.67352 L 371.35083,15.52598 C 369.89808,13.55871 368.44539,12.74153 367.05314,12.74153 C 366.05447,12.74153 365.14649,13.16531 364.26882,13.83106 C 361.99895,15.52598 361.42388,17.88659 363.93591,21.12493 L 382.5186,45.85142 C 383.91079,47.75813 385.33323,48.60556 386.78592,48.60556 C 387.72415,48.60556 388.72287,48.21203 389.63086,47.51596 C 391.87047,45.85142 392.41518,43.46044 389.96377,40.19191 L 385.878,34.89555 L 382.39749,37.46808 L 374.74047,27.45032 L 392.53629,14.07316 L 415.20475,44.03551 L 407.85033,49.54373 L 403.70401,48.18184 C 402.67503,53.02424 400.34461,56.65605 396.1681,59.80359 C 391.26521,63.4959 387.11889,65.40261 383.15417,65.40261 M 423.52759,37.83118 L 394.9877,1.4210855e-14 L 417.32326,1.4210855e-14 L 437.75216,27.11741 L 423.52759,37.83118 z M 0.90793,470.55961 L 5.6843419e-14,469.40965 L 5.6843419e-14,439.7499 L 6.4162,448.2846 L 23.9093,435.08911 L 32.68616,446.71086 L 0.90793,470.55961 M 5.6843419e-14,436.72347 L 5.6843419e-14,418.47367 L 3.51076,415.84059 L 12.28756,427.43209 L 5.6843419e-14,436.72347 z M 41.1906,437.51034 C 33.65463,437.51034 26.69368,430.73099 16.22203,416.83938 C 0.78687,396.47101 0.12106,385.18217 13.89161,374.83157 C 18.64319,371.23007 23.93954,368.96014 29.0846,368.96014 C 32.20189,368.96014 35.25868,369.77732 38.10356,371.68397 C 40.49448,373.22752 42.70385,375.73949 46.00268,380.12799 L 31.77817,390.8115 L 29.4175,387.63365 C 27.96482,385.72694 26.48182,384.87958 25.05938,384.87958 C 24.0606,384.87958 23.12243,385.30329 22.21444,385.96904 C 20.09594,387.63365 19.52087,390.02457 21.85129,393.29322 L 40.49448,417.98947 C 41.94722,419.86587 43.43016,420.71329 44.85266,420.71329 C 45.85138,420.71329 46.7593,420.31983 47.66729,419.65401 C 49.8161,417.98947 50.39111,415.59848 48.0002,412.3602 L 43.94467,407.06378 L 40.37342,409.63625 L 32.80721,399.58837 L 50.60297,386.21115 L 73.24118,416.1735 L 65.94732,421.68177 L 61.7405,420.31983 C 60.65097,425.16222 58.38104,428.76372 54.11373,431.94157 C 49.27134,435.60369 45.12501,437.51034 41.1906,437.51034 M 81.47322,409.96922 L 40.79714,355.91601 L 55.11245,345.20219 L 95.78853,399.13434 L 81.47322,409.96922 z M 121.93744,379.4318 L 81.26136,325.4997 L 97.21097,313.42394 C 102.71918,309.30792 107.56157,306.97749 112.13161,306.97749 C 117.30691,306.97749 122.20985,309.94349 127.23379,316.57148 C 136.67647,329.0709 135.31452,336.39508 122.27035,346.17067 L 119.78863,347.98657 L 135.64743,369.08125 L 121.93744,379.4318 M 108.19714,322.07975 C 106.59309,322.07975 104.77725,323.01798 102.32577,324.92469 L 112.25266,337.96882 C 116.85294,334.48837 118.18458,332.09745 113.6751,326.13527 C 111.64734,323.41145 110.04335,322.07975 108.19714,322.07975 M 159.76864,350.95251 L 119.09256,296.95979 L 149.96275,273.65581 L 158.31589,284.79328 L 141.63991,297.2927 L 148.60087,306.52359 L 162.37142,296.17293 L 171.02716,307.79467 L 157.31717,318.14534 L 165.27685,328.617 L 182.76995,315.4517 L 191.42576,327.04326 L 159.76864,350.95251 z M 200.02101,317.84268 C 192.48504,317.84268 185.55433,311.03302 174.96163,297.08091 C 159.64753,276.80335 158.89091,265.51451 172.63121,255.1639 C 177.38279,251.5624 182.67921,249.32278 187.8242,249.32278 C 190.94149,249.32278 193.99828,250.1399 196.84316,252.01636 C 199.20383,253.55986 201.44345,256.07189 204.8634,260.46032 L 190.51777,271.17408 L 188.18741,268.02654 C 186.70442,266.05928 185.22142,265.21191 183.82923,265.21191 C 182.86075,265.21191 181.92252,265.63556 181.04485,266.33169 C 178.83554,268.02654 178.26047,270.3569 180.71194,273.65581 L 199.32488,298.32174 C 200.71707,300.22845 202.20007,301.04563 203.65276,301.04563 C 204.59098,301.04563 205.52922,300.68241 206.40689,299.98635 C 208.67675,298.32174 209.25177,295.93082 206.7398,292.69248 L 202.71459,287.27501 L 199.20383,289.96865 L 191.54681,279.95089 L 209.37288,266.54355 L 231.98078,296.50583 L 224.68692,302.04429 L 220.51035,300.68241 C 219.48137,305.5248 217.1207,309.15662 212.94413,312.27391 C 208.07143,315.96622 203.95542,317.84268 200.02101,317.84268 M 240.33387,290.30156 L 199.56699,236.24835 L 213.85205,225.53446 L 254.52813,279.49699 L 240.33387,290.30156 z M 280.79809,259.76419 L 240.00096,205.83198 L 256.10193,193.75627 C 261.48909,189.67056 266.33148,187.37038 270.93177,187.37038 C 276.16756,187.37038 281.04026,190.30613 286.0642,197.02493 C 295.41607,209.43354 294.05419,216.75766 281.00995,226.56356 L 278.61903,228.3491 L 294.41734,249.41359 L 280.79809,259.76419 M 266.9368,202.41209 C 265.39325,202.41209 263.60765,203.38056 261.18643,205.25703 L 270.99226,218.30121 C 275.59255,214.8207 276.95449,212.46003 272.44501,206.46761 C 270.38694,203.74372 268.78295,202.41209 266.9368,202.41209 M 318.53849,231.28484 L 277.83216,177.29213 L 308.73266,153.98814 L 317.0555,165.15587 L 300.50056,177.74615 L 307.37071,186.88611 L 321.11102,176.50526 L 329.88788,188.12701 L 316.14757,198.47768 L 324.07701,208.97952 L 341.50961,195.81434 L 350.31672,207.37553 L 318.53849,231.28484 z M 358.76061,198.17495 C 351.22464,198.17495 344.35449,191.42591 333.85259,177.5343 C 318.41744,157.13568 317.75156,145.87709 331.46168,135.49624 C 336.18295,131.95523 341.44906,129.68537 346.59411,129.68537 C 349.74165,129.68537 352.82869,130.50255 355.67363,132.3487 C 357.97374,133.95275 360.3041,136.40422 363.603,140.79259 L 349.28769,151.50642 L 346.89671,148.35888 C 345.50452,146.39161 344.08208,145.60474 342.62939,145.60474 C 341.69116,145.60474 340.75293,145.9679 339.81476,146.66403 C 337.57514,148.35888 337.00013,150.71949 339.45161,153.98814 L 358.06455,178.65408 C 359.54754,180.59103 361.03048,181.43846 362.42267,181.43846 C 363.36083,181.43846 364.32931,181.04506 365.1768,180.37918 C 367.41636,178.65408 367.99143,176.32365 365.4794,173.02481 L 361.54499,167.60734 L 357.97374,170.33117 L 350.28641,160.31347 L 368.20322,146.87588 L 390.72039,176.83823 L 383.51739,182.37669 L 379.24995,181.01475 C 378.25122,185.85714 375.95105,189.48895 371.68373,192.63649 C 366.81103,196.3288 362.69508,198.17495 358.76061,198.17495 M 399.07353,170.63389 L 358.39745,116.58062 L 372.59172,105.86686 L 413.38879,159.85951 L 399.07353,170.63389 z M 439.50751,140.12684 L 398.86162,86.16431 L 414.87178,74.08867 C 420.22869,69.97259 425.10133,67.67241 429.70161,67.67241 C 434.90722,67.67241 439.7798,70.60816 444.83411,77.26639 C 454.27678,89.76594 452.91484,97.08999 439.8706,106.89584 L 437.38894,108.68149 L 453.24781,129.74586 L 439.50751,140.12684 M 425.70665,82.77467 C 424.13285,82.77467 422.34719,83.74315 419.92603,85.5893 L 429.82273,98.66373 C 434.33215,95.18328 435.81521,92.82268 431.30566,86.8605 C 429.15685,84.07606 427.58311,82.77467 425.70665,82.77467 M 477.27809,111.61718 L 436.60201,57.68502 L 467.47226,34.35073 L 475.91621,45.4882 L 459.24017,57.98762 L 466.23143,67.21851 L 479.97167,56.89815 L 488.65773,68.4594 L 474.88718,78.84026 L 482.78636,89.31192 L 500.34002,76.14662 L 509.05632,87.76836 L 477.27809,111.61718 z M 517.53046,78.5376 C 510.0248,78.5376 503.06384,71.75824 492.5922,57.86663 C 477.27809,37.46808 476.49129,26.23974 490.23146,15.82858 C 494.98305,12.28763 500.30971,10.0177 505.45476,10.0177 C 508.57205,10.0177 511.62879,10.83488 514.47373,12.71128 C 516.80415,14.28508 519.07401,16.7365 522.3426,21.12493 L 508.14834,31.83869 L 505.75742,28.69115 C 504.33492,26.7845 502.85199,25.93702 501.42955,25.93702 C 500.43082,25.93702 499.49259,26.33054 498.58461,26.9963 C 496.40555,28.69115 495.86085,31.08213 498.22145,34.35073 L 516.9252,59.01672 C 518.37795,60.89306 519.80039,61.74055 521.22276,61.74055 C 522.19124,61.74055 523.12953,61.37733 524.03739,60.71157 C 526.15596,59.01672 526.73103,56.65605 524.37036,53.35715 L 520.28459,47.96992 L 516.6831,50.69381 L 509.17737,40.64581 L 526.94283,27.23846 L 549.61129,57.23106 L 542.28718,62.70903 L 538.11067,61.37733 C 537.08163,66.21972 534.75127,69.82129 530.42334,72.96883 C 525.58095,76.66113 521.49518,78.5376 517.53046,78.5376 M 557.81314,51.02678 L 519.46742,1.4210855e-14 L 541.80291,1.4210855e-14 L 572.12839,40.19191 L 557.81314,51.02678 z M 598.2773,20.48936 L 582.84227,1.4210855e-14 L 604.39089,1.4210855e-14 L 612.0176,10.13875 L 598.2773,20.48936 z M 16.82729,570.34324 C 11.44013,570.34324 6.35564,566.86279 5.6843419e-14,559.75047 L 5.6843419e-14,529.39472 L 16.10098,550.82237 C 17.55366,552.69883 19.03666,553.5462 20.42885,553.5462 C 21.36702,553.5462 22.3355,553.15273 23.24348,552.48691 C 25.45279,550.82237 26.02786,548.31034 23.57639,545.16279 L 19.52087,539.77563 L 16.01017,542.43897 L 8.35315,532.42127 L 26.14891,519.04417 L 48.78707,549.0064 L 41.46295,554.51467 L 37.28638,553.15273 C 36.28765,557.87407 33.92699,561.62693 29.78072,564.77448 C 24.87777,568.4366 20.76176,570.34324 16.82729,570.34324 M 7.32412,523.64446 L 4.96345,520.49686 C 3.51076,518.52966 2.05801,517.71248 0.63557,517.71248 C 0.42372,517.71248 0.24211,517.74279 5.6843419e-14,517.77297 L 5.6843419e-14,502.39843 C 1.5435,502.00496 3.08705,501.82335 4.66079,501.82335 C 7.74783,501.82335 10.83487,502.61022 13.6495,504.51699 C 16.01017,505.93943 18.28004,508.54221 21.63943,512.93058 L 7.32412,523.64446 M 57.14021,542.68107 L 16.46413,488.71861 L 30.62815,478.03515 L 71.36472,531.96725 L 57.14021,542.68107 z M 97.57419,512.26482 L 56.77706,458.30236 L 72.90821,446.25684 C 78.32568,442.11063 83.16807,439.81046 87.76835,439.81046 C 92.94365,439.81046 97.87679,442.77645 102.87054,449.43469 C 112.25266,461.90392 110.89071,469.10693 97.78604,479.03382 L 95.45562,480.81948 L 111.34474,501.88391 L 97.57419,512.26482 M 83.80364,454.88247 C 82.19959,454.88247 80.44418,455.85095 77.96246,457.75759 L 87.76835,470.80178 C 92.36858,467.32127 93.76077,464.93035 89.25129,458.96818 C 87.19328,456.18379 85.61954,454.88247 83.80364,454.88247 M 135.31452,483.78547 L 94.66875,429.7927 L 125.539,406.48871 L 133.83159,417.65649 L 117.30691,430.12567 L 124.14681,439.3565 L 137.94761,429.00583 L 146.7244,440.59739 L 132.98416,450.97824 L 140.85304,461.4499 L 158.31589,448.2846 L 167.09275,459.87616 L 135.31452,483.78547 z M 175.56689,450.67558 C 168.03092,450.67558 161.16083,443.89623 150.65887,429.91381 C 135.22378,409.51526 134.52765,398.34747 148.2982,387.99681 C 152.9893,384.42561 158.31589,382.15575 163.46094,382.15575 C 166.60848,382.15575 169.66522,383.00311 172.51016,384.84927 C 174.87083,386.33226 177.11044,388.90479 180.37903,393.17211 L 166.18477,403.97674 L 163.7333,400.85945 C 162.34117,398.92249 160.88842,398.07506 159.46598,398.07506 C 158.52775,398.07506 157.52902,398.46853 156.62104,399.13434 C 154.47223,400.73846 153.89722,403.18987 156.28813,406.48871 L 174.87083,431.1547 C 176.38407,433.0311 177.83682,433.84822 179.22895,433.84822 C 180.19742,433.84822 181.10541,433.45482 181.95283,432.84956 C 184.25294,431.1547 184.79771,428.64273 182.31599,425.52538 L 178.38158,420.10803 L 174.74977,422.80155 L 167.2138,412.75361 L 184.97932,399.2554 L 207.64778,429.3388 L 200.32361,434.84701 L 196.1471,433.54562 C 195.02726,438.2669 192.78764,441.95927 188.52032,445.10687 C 183.64768,448.82943 179.50136,450.67558 175.56689,450.67558 M 215.84957,423.04365 L 175.20373,369.08125 L 189.42824,358.36749 L 230.19513,412.3602 L 215.84957,423.04365 z M 256.34404,392.5971 L 215.63771,338.665 L 231.64781,326.46818 C 237.09553,322.41266 241.93792,320.14279 246.50796,320.14279 C 251.74375,320.14279 256.61645,323.10872 261.64039,329.76709 C 271.11331,342.2362 269.72112,349.46957 256.67695,359.39646 L 254.19522,361.15181 L 270.08434,382.24655 L 256.34404,392.5971 M 242.60374,335.21474 C 241.03,335.21474 239.24434,336.18322 236.73237,338.08993 L 246.65926,351.13412 C 251.16874,347.6536 252.59118,345.32324 248.112,339.33076 C 245.99344,336.54644 244.41964,335.21474 242.60374,335.21474 M 294.17524,364.11774 L 253.37811,310.15534 L 284.24829,286.82105 L 292.72249,297.98889 L 276.04651,310.458 L 283.00746,319.74933 L 296.77801,309.36847 L 305.43376,320.95997 L 291.72377,331.31058 L 299.68345,341.78224 L 317.17655,328.617 L 325.83236,340.23874 L 294.17524,364.11774 z M 334.36711,331.00798 C 326.86139,331.00798 319.90044,324.2285 309.36823,310.24615 C 294.05419,289.84753 293.26726,278.74031 307.03781,268.35945 C 311.78939,264.75789 317.11605,262.48802 322.26104,262.48802 C 325.34808,262.48802 328.40482,263.33545 331.24976,265.1816 C 333.64074,266.6646 335.88029,269.23713 339.14888,273.53476 L 324.92437,284.36957 L 322.59395,281.19178 C 321.11102,279.25482 319.62802,278.43771 318.23583,278.43771 C 317.29766,278.43771 316.32918,278.8008 315.48176,279.49699 C 313.24214,281.07073 312.66706,283.5827 315.11854,286.82105 L 333.64074,311.48698 C 335.09348,313.39375 336.57636,314.18062 338.02911,314.18062 C 338.99758,314.18062 339.90557,313.84765 340.81349,313.18183 C 342.9623,311.48698 343.53737,309.03556 341.14646,305.85771 L 337.12112,300.44031 L 333.51962,303.1642 L 325.95341,293.1465 L 343.77948,279.58779 L 366.38738,309.67113 L 359.09352,315.20959 L 354.94726,313.87796 C 353.91822,318.59924 351.5273,322.32185 347.25993,325.43915 C 342.41753,329.1617 338.33177,331.00798 334.36711,331.00798 M 374.64966,303.40624 L 333.97358,249.41359 L 348.28896,238.69976 L 388.93473,292.69248 L 374.64966,303.40624 z M 415.08364,272.98993 L 374.40756,218.99728 L 390.41773,206.80052 C 395.83519,202.77524 400.67758,200.50538 405.24756,200.50538 C 410.45317,200.50538 415.35605,203.44106 420.38005,210.09942 C 429.82273,222.59884 428.49103,229.80185 415.41655,239.7288 L 412.93483,241.54471 L 428.82394,262.60907 L 415.08364,272.98993 M 401.37365,215.57739 C 399.79985,215.57739 398.04444,216.54586 395.59302,218.42227 L 405.39886,231.52695 C 410.02939,227.986 411.36103,225.65558 406.88185,219.6631 C 404.7936,216.87877 403.25005,215.57739 401.37365,215.57739 M 452.94509,244.45014 L 412.23876,190.51793 L 443.10895,167.15344 L 451.49234,178.32117 L 434.90722,190.85083 L 441.80756,200.08172 L 455.51761,189.70075 L 464.29447,201.29231 L 450.58448,211.70347 L 458.4533,222.17513 L 475.91621,208.97952 L 484.69301,220.57108 L 452.94509,244.45014 z M 493.16721,211.34025 C 485.63124,211.34025 478.73084,204.59115 468.16839,190.60873 C 452.82404,170.24036 452.03711,159.07264 465.77741,148.69173 C 470.5593,145.12053 475.82541,142.85067 480.97046,142.85067 C 484.08769,142.85067 487.14442,143.66778 489.98936,145.51394 C 492.38034,146.99687 494.7107,149.59971 498.0096,153.89734 L 483.66404,164.70191 L 481.33355,161.52405 C 479.94142,159.5871 478.45843,158.77004 477.00568,158.77004 C 476.06751,158.77004 475.09903,159.1332 474.22136,159.82926 C 471.98174,161.40306 471.40667,163.91504 473.88845,167.15344 L 492.47114,191.81931 C 493.89358,193.72602 495.40676,194.51296 496.8292,194.51296 C 497.7978,194.51296 498.73597,194.18005 499.61365,193.54448 C 501.82302,191.81931 502.39797,189.3679 499.91624,186.2203 L 495.86085,180.77264 L 492.38034,183.49647 L 484.69301,173.47877 L 502.51908,159.98062 L 525.12698,190.06396 L 517.83312,195.57224 L 513.65655,194.21023 C 512.65782,198.93164 510.2669,202.65419 506.09033,205.83198 C 501.21763,209.4941 497.13192,211.34025 493.16721,211.34025 M 533.51038,183.73857 L 492.8343,129.74586 L 506.99825,119.0321 L 547.67439,173.02481 L 533.51038,183.73857 z M 573.94435,153.32232 L 533.26827,99.32961 L 549.27844,87.19335 C 554.63529,83.10758 559.47768,80.83771 564.0779,80.83771 C 569.28351,80.83771 574.18646,83.77346 579.24064,90.43169 C 588.59252,102.96142 587.32138,110.16449 574.27726,120.06107 L 571.76523,121.87704 L 587.68466,142.94147 L 573.94435,153.32232 M 560.1435,95.87941 C 558.53951,95.87941 556.75385,96.8782 554.33263,98.66373 L 564.13846,111.85934 C 568.73868,108.34852 570.22174,105.98791 565.62146,100.02574 C 563.5332,97.21105 561.95934,95.87941 560.1435,95.87941 M 611.68469,124.78248 L 571.03892,70.85026 L 601.90917,47.51596 L 610.32275,58.6535 L 593.64682,71.18323 L 600.51698,80.414 L 614.25715,70.06339 L 623.09457,81.65489 L 609.29377,91.91469 L 617.22321,102.50746 L 626,95.8491 L 626,114.03841 L 611.68469,124.78248 z M 151.20364,583.50854 C 143.63742,583.50854 136.67647,576.72919 126.20482,562.71653 C 110.89071,542.34816 110.10385,531.21069 123.81384,520.86002 C 128.62598,517.25852 133.92233,514.98865 139.06738,514.98865 C 142.18467,514.98865 145.24147,515.80583 148.0561,517.68217 C 150.41677,519.13492 152.68663,521.70751 156.04603,526.03532 L 141.76096,536.83995 L 139.37004,533.6621 C 137.94761,531.75539 136.46461,530.90803 135.04217,530.90803 C 134.07369,530.90803 133.16571,531.30149 132.28804,531.96725 C 130.01817,533.57136 129.47341,536.05308 131.95513,539.20062 L 150.53782,563.86655 C 151.96026,565.83376 153.44326,566.65094 154.89594,566.65094 C 155.80392,566.65094 156.74209,566.31803 157.65008,565.68246 C 159.85938,563.98761 160.43446,561.50582 157.98299,558.32809 L 153.89722,552.94093 L 150.41677,555.66476 L 142.79,545.52595 L 160.55551,532.08836 L 183.22391,562.1717 L 175.86955,567.61942 L 171.72329,566.34822 C 170.69425,571.09993 168.33358,574.79223 164.18732,577.96996 C 159.31462,581.63208 155.13811,583.50854 151.20364,583.50854 M 191.54681,555.87656 L 150.74968,501.88391 L 165.06499,491.20039 L 205.77132,545.16279 L 191.54681,555.87656 z M 231.85973,525.46031 L 191.2139,471.37679 L 207.31481,459.30109 C 212.70203,455.24556 217.54442,452.97569 222.08415,452.97569 C 227.28969,452.97569 232.19264,455.94163 237.27714,462.59999 C 246.65926,475.0691 245.29731,482.30247 232.19264,492.10831 L 229.74117,494.01502 L 245.63028,515.10964 L 231.85973,525.46031 M 218.17993,468.04764 C 216.57594,468.04764 214.85078,468.98587 212.39937,470.80178 L 222.17495,483.99733 C 226.83573,480.48657 228.16737,478.12596 223.65789,472.16372 C 221.56963,469.34903 220.02608,468.04764 218.17993,468.04764 M 269.72112,496.95071 L 229.07535,442.98831 L 259.9456,419.65401 L 268.26844,430.82179 L 251.74375,443.29091 L 258.58365,452.46124 L 272.3542,442.20144 L 281.131,453.70207 L 267.39076,464.05268 L 275.25964,474.64545 L 292.72249,461.4499 L 301.40855,473.07165 L 269.72112,496.95071 z M 309.97355,463.84088 C 302.46783,463.84088 295.56737,457.06153 285.06547,443.10936 C 269.63038,422.71075 268.93425,411.54302 282.7048,401.19235 C 287.39589,397.59079 292.662,395.32099 297.80699,395.32099 C 300.89403,395.32099 303.98107,396.16835 306.82595,398.0145 C 309.18668,399.49756 311.54729,401.97922 314.78563,406.36772 L 300.50056,417.08148 L 298.10965,413.90363 C 296.74777,412.05748 295.32526,411.2403 293.90283,411.2403 C 292.93435,411.2403 291.93562,411.63383 291.02764,412.29958 C 288.75777,413.90363 288.24332,416.38542 290.69473,419.53296 L 309.27742,444.19889 C 310.79067,446.16616 312.27366,447.01352 313.6961,447.01352 C 314.63433,447.01352 315.512,446.65037 316.38968,446.01473 C 318.65954,444.31988 319.23462,441.86847 316.72259,438.56963 L 312.66706,433.27321 L 309.18668,435.9971 L 301.6204,425.85829 L 319.41623,412.45088 L 341.96351,442.53435 L 334.73027,447.95169 L 330.46289,446.71086 C 329.4641,451.4322 327.19424,455.03377 322.92692,458.30236 C 318.05428,461.99473 313.90796,463.84088 309.97355,463.84088 M 350.28641,436.20895 L 309.61033,382.27674 L 323.83484,371.53267 L 364.51092,425.52538 L 350.28641,436.20895 z M 390.75063,405.79264 L 350.04431,351.83018 L 366.05447,339.66367 C 371.41132,335.57796 376.25377,333.30803 380.88424,333.30803 C 386.1201,333.30803 391.02305,336.27402 396.04699,342.93232 C 405.39886,355.46199 404.15803,362.63481 391.0836,372.56176 L 388.60188,374.37761 L 404.49094,395.44204 L 390.75063,405.79264 M 376.94984,348.37998 C 375.34579,348.37998 373.59044,349.31827 371.10866,351.16443 L 380.97505,364.32966 C 385.57534,360.84921 387.02808,358.48848 382.39749,352.37501 C 380.36973,349.65118 378.76568,348.37998 376.94984,348.37998 M 428.49103,377.28304 L 387.81495,323.32064 L 418.6852,300.01666 L 427.09878,311.15407 L 410.45317,323.6838 L 417.414,332.79351 L 431.09381,322.53377 L 439.8706,334.03441 L 426.13043,344.41526 L 433.99924,355.00803 L 451.49234,341.78224 L 460.26926,353.40398 L 428.49103,377.28304 z M 468.77365,344.20346 C 461.26793,344.20346 454.30697,337.3938 443.80513,323.44163 C 428.49103,303.04308 427.67385,291.78449 441.44447,281.52475 C 446.16574,277.89294 451.49234,275.65326 456.5769,275.65326 C 459.72444,275.65326 462.78117,276.50075 465.65636,278.37715 C 468.04727,279.8299 470.28689,282.43261 473.58573,286.69999 L 459.36128,297.53487 L 457.00061,294.38727 C 455.48737,292.42012 454.00437,291.60294 452.58193,291.60294 C 451.58314,291.60294 450.67522,291.93585 449.7673,292.57142 C 447.61843,294.23597 447.07372,296.748 449.43439,299.86523 L 468.04727,324.59172 C 469.53027,326.49843 470.95271,327.34586 472.40545,327.34586 C 473.37393,327.34586 474.31216,326.92214 475.22008,326.25626 C 477.39914,324.68253 477.94397,322.20086 475.5833,318.93221 L 471.52778,313.63585 L 467.92628,316.32937 L 460.36,306.19062 L 478.18608,292.81353 L 500.82423,322.86662 L 493.50012,328.28403 L 489.35379,327.04326 C 488.2037,331.76454 485.9339,335.36604 481.66652,338.665 C 476.82413,342.327 472.73836,344.20346 468.77365,344.20346 M 509.05632,316.57148 L 468.34993,262.60907 L 482.69556,251.89531 L 523.34133,305.85771 L 509.05632,316.57148 z M 549.49024,286.15523 L 508.81416,232.07171 L 524.82432,220.02631 C 530.27197,215.94048 535.11436,213.61012 539.6844,213.61012 C 544.89001,213.61012 549.76265,216.57605 554.78659,223.2646 C 564.25957,235.79433 562.89763,242.96708 549.85339,252.8033 L 547.34149,254.70994 L 563.23054,275.77437 L 549.49024,286.15523 M 535.81049,228.71231 C 534.1762,228.71231 532.3906,229.65055 529.90888,231.52695 L 539.80546,244.57113 C 544.31494,241.21173 545.73738,238.82088 541.2582,232.73759 C 539.2002,230.01376 537.6264,228.71231 535.81049,228.71231 M 587.32138,257.64569 L 546.6453,203.68323 L 577.51561,180.31868 L 585.899,191.4864 L 569.31376,204.01613 L 576.21422,213.12585 L 589.92421,202.86605 L 598.61021,214.36674 L 584.99102,224.74759 L 592.85996,235.34037 L 610.32275,222.14482 L 618.97855,233.73632 L 587.32138,257.64569 z M 626,224.445 C 619.06936,223.53701 612.38082,216.75766 602.54474,203.77403 C 587.20039,183.40566 586.47401,172.11683 600.18407,161.85703 C 604.93565,158.22521 610.20176,156.0159 615.3165,156.0159 C 618.46404,156.0159 621.52077,156.83308 624.39602,158.73973 C 624.94072,159.04239 625.4553,159.40561 626,159.85951 L 626,171.90503 L 618.13107,177.86721 L 615.74021,174.71966 C 614.22697,172.7524 612.74397,171.93528 611.35172,171.93528 C 610.41355,171.93528 609.50563,172.26813 608.62789,172.9037 C 606.38834,174.62886 605.84357,177.08034 608.3253,180.25812 L 626,203.71347 L 626,224.445 M 626,195.66304 L 619.09954,186.52302 L 626,181.34766 L 626,195.66304 z M 325.83236,569.04186 L 285.15628,515.10964 L 299.35054,504.27489 L 340.14767,558.32809 L 325.83236,569.04186 z M 366.26627,538.62555 L 325.6205,484.57234 L 341.6306,472.49657 C 347.07832,468.41086 351.92071,466.11068 356.52099,466.11068 C 361.69629,466.11068 366.53868,469.04643 371.59293,475.76523 C 381.03561,488.26465 379.70397,495.46777 366.62949,505.30386 L 364.14783,507.18032 L 380.06713,528.27494 L 366.26627,538.62555 M 352.55628,481.15239 C 350.95223,481.15239 349.19688,482.12086 346.68491,483.99733 L 356.58149,497.04151 C 361.09097,493.68212 362.57397,491.29113 358.06455,485.23822 C 355.97623,482.48408 354.40243,481.15239 352.55628,481.15239 M 404.15803,510.14626 L 363.48195,456.03243 L 394.35213,432.84956 L 402.67503,443.98703 L 386.15041,456.48645 L 392.99025,465.62641 L 406.76086,455.24556 L 415.41655,466.86731 L 401.64606,477.21798 L 409.66617,487.81075 L 427.09878,474.64545 L 435.81521,486.23688 L 404.15803,510.14626 z M 444.41039,477.00606 C 436.87436,477.00606 429.91347,470.22677 419.35095,456.2746 C 404.03691,435.87598 403.25005,424.61746 417.02059,414.23654 C 421.74193,410.69553 427.06859,408.45598 432.1834,408.45598 C 435.33094,408.45598 438.38767,409.27316 441.23255,411.089 C 443.56303,412.6628 445.83283,415.14452 449.19229,419.53296 L 434.90722,430.24672 L 432.51624,427.09918 C 431.03331,425.22272 429.58056,424.4056 428.18837,424.4056 C 427.21989,424.4056 426.31191,424.76882 425.46455,425.40433 C 423.16437,427.09918 422.61961,429.45985 425.10133,432.72844 L 443.68402,457.39438 C 445.07621,459.33133 446.55915,460.17876 447.95134,460.17876 C 448.95012,460.17876 449.88829,459.78536 450.79628,459.05898 C 453.0662,457.51549 453.61091,455.03377 451.12925,451.76511 L 447.07372,446.46876 L 443.56303,449.19258 L 435.9362,439.05383 L 453.70171,425.61618 L 476.37017,455.57853 L 469.04606,461.11699 L 464.86955,459.87616 C 463.84045,464.59744 461.51003,468.22925 457.33352,471.4676 C 452.46082,475.09941 448.3448,477.00606 444.41039,477.00606 M 484.69301,449.37419 L 443.92612,395.44204 L 458.21119,384.60716 L 498.91758,438.72093 L 484.69301,449.37419 z M 525.06649,418.95794 L 484.3601,364.90461 L 500.46101,352.82897 C 505.87847,348.80369 510.72087,346.44302 515.3514,346.44302 C 520.5267,346.44302 525.42958,349.40895 530.42334,356.12781 C 539.80546,368.62723 538.44357,375.83029 525.39934,385.6362 L 523.00842,387.54285 L 538.77648,408.60728 L 525.06649,418.95794 M 511.32619,361.51497 C 509.72214,361.51497 507.99698,362.48345 505.54563,364.32966 L 515.38171,377.40416 C 519.98193,374.01445 521.31357,371.65378 516.80415,365.6008 C 514.74608,362.81636 513.17234,361.51497 511.32619,361.51497 M 562.89763,390.47859 L 522.22155,336.39508 L 553.09173,313.18183 L 561.44494,324.34962 L 544.89001,336.84904 L 551.72985,345.98906 L 565.5004,335.63845 L 574.27726,347.19971 L 560.53696,357.58056 L 568.40584,368.17327 L 585.899,355.00803 L 594.6758,366.44817 L 562.89763,390.47859 z M 603.15,357.33839 C 595.61397,357.33839 588.71363,350.61966 578.21167,336.60693 C 562.77652,316.20838 562.08045,304.98004 575.88131,294.56888 C 580.54203,291.02793 585.8082,288.78831 590.95318,288.78831 C 594.10072,288.78831 597.15752,289.63568 600.09326,291.45165 C 602.33282,293.02538 604.69349,295.47686 607.96208,299.86523 L 593.64682,310.57912 L 591.3164,307.43152 C 589.86372,305.55511 588.38066,304.70763 586.98847,304.70763 C 586.0503,304.70763 585.08182,305.07084 584.17384,305.73672 C 581.93428,307.43152 581.38952,309.82243 583.84093,313.09103 L 602.42362,337.75702 C 603.90662,339.66367 605.35937,340.51116 606.78174,340.51116 C 607.75022,340.51116 608.6582,340.11769 609.53588,339.45187 C 611.8058,337.75702 612.38082,335.39635 609.86885,332.09745 L 605.84357,326.80109 L 602.33282,329.52492 L 594.7666,319.38623 L 612.56236,305.97883 L 626,323.7746 L 626,340.93481 L 623.63934,340.23874 C 622.61036,344.96009 620.37075,348.56159 616.07312,351.83018 C 611.20042,355.49224 607.0844,357.33839 603.15,357.33839 M 626,306.58409 L 602.81703,275.77437 L 616.9811,264.96981 L 626,276.92446 L 626,306.58409 z M 460.26926,582.2374 L 419.59318,528.15389 L 433.75714,517.44006 L 474.43322,571.43284 L 460.26926,582.2374 z M 500.70311,551.73035 L 460.02703,497.73764 L 476.0372,485.66187 C 481.45467,481.60635 486.29706,479.30623 490.86703,479.30623 C 496.07264,479.30623 500.94534,482.27216 505.99953,488.96071 C 515.4422,501.42995 514.14082,508.66326 501.03608,518.4691 L 498.58461,520.28501 L 514.47373,541.34937 L 500.70311,551.73035 M 486.93263,494.37818 C 485.38907,494.37818 483.60348,495.31641 481.09145,497.16257 L 491.01833,510.26725 C 495.49763,506.7263 496.98062,504.39588 492.47114,498.4034 C 490.35258,495.67957 488.77878,494.37818 486.93263,494.37818 M 538.56456,523.31149 L 497.7978,469.25823 L 528.66799,446.01473 L 537.08163,457.18252 L 520.40565,469.71225 L 527.39685,478.82202 L 541.1674,468.44117 L 549.85339,480.06292 L 536.05266,490.38321 L 544.10314,500.88518 L 561.53569,487.71994 L 570.22174,499.31138 L 538.56456,523.31149 z M 578.72619,490.08061 C 571.22053,490.08061 564.25957,483.36176 553.78786,469.43983 C 538.44357,449.07159 537.6567,437.81294 551.39694,427.43209 C 556.20909,423.86083 561.44494,421.62121 566.58993,421.62121 C 569.73747,421.62121 572.76402,422.43839 575.63914,424.25424 C 577.99988,425.85829 580.23943,428.30976 583.50802,432.72844 L 569.31376,443.44221 L 566.92284,440.26448 C 565.5004,438.32752 564.01741,437.51034 562.59497,437.51034 C 561.59624,437.51034 560.65801,437.8735 559.75009,438.59981 C 557.60122,440.26448 557.02627,442.65534 559.53817,445.89374 L 578.09062,470.55961 C 579.51306,472.52688 580.9355,473.34406 582.358,473.34406 C 583.32647,473.34406 584.29495,472.95059 585.20281,472.28478 C 587.32138,470.55961 587.89645,468.22925 585.56609,464.93035 L 581.51051,459.63406 L 577.87876,462.35788 L 570.34279,452.21913 L 588.10825,438.78142 L 610.77677,468.80426 L 603.4526,474.31254 L 599.27608,472.95059 C 598.2773,477.79299 595.91669,481.39449 591.64931,484.57234 C 586.77667,488.2344 582.66066,490.08061 578.72619,490.08061 M 618.97855,462.59999 L 578.33278,408.48629 L 592.61779,397.7724 L 626,442.05008 L 626,457.30363 L 618.97855,462.59999 z M 603.90662,588.41143 L 563.10942,534.47922 L 577.4248,523.64446 L 618.13107,577.75817 L 603.90662,588.41143 z M 626,533.6621 L 603.5434,503.94192 L 619.67462,491.86615 C 621.88399,490.23191 623.94193,488.86991 626,487.81075 L 626,502.45892 C 625.57629,502.73133 625.21314,503.034 624.72893,503.3669 L 626,505.03145 L 626,533.6621"
     id="path27815"
     style="fill:#c7d876;fill-opacity:1;fill-rule:nonzero;stroke:none" />
  <path
     d="M 613.4401,613.38003 L 12.52966,613.38003 L 12.52966,12.46912 L 613.4401,12.46912 L 613.4401,613.38003 z M 5.6843419e-14,625.9097 L 625.93951,625.9097 L 625.93951,1.4210855e-14 L 5.6843419e-14,1.4210855e-14 L 5.6843419e-14,625.9097 z"
     id="path28019"
     style="fill:#1e1c1c;fill-opacity:1;fill-rule:nonzero;stroke:none" />
  <path
     d="M 625.93951,625.9097 L 5.6843419e-14,625.9097 L 5.6843419e-14,500.73388 L 625.93951,500.73388 L 625.93951,625.9097 z"
     id="path28021"
     style="fill:#1e1c1c;fill-opacity:1;fill-rule:nonzero;stroke:none" />
  <path
     d="M 39.7681,593.40513 L 50.39111,593.40513 L 60.1667,545.97997 L 60.37855,545.97997 L 70.54754,593.40513 L 80.50474,593.40513 L 94.27529,535.2964 L 84.74181,535.2964 L 75.7834,582.81248 L 75.51105,582.81248 L 65.91701,535.2964 L 55.1427,535.2964 L 45.27637,582.81248 L 45.06451,582.81248 L 35.74289,535.2964 L 26.20941,535.2964 L 39.7681,593.40513 z M 110.04335,593.40513 L 120.63605,593.40513 L 130.41164,545.97997 L 130.62349,545.97997 L 140.85304,593.40513 L 150.77993,593.40513 L 164.58072,535.2964 L 155.01699,535.2964 L 146.02834,582.81248 L 145.81648,582.81248 L 136.16195,535.2964 L 125.4482,535.2964 L 115.58181,582.81248 L 115.3397,582.81248 L 105.98783,535.2964 L 96.51491,535.2964 L 110.04335,593.40513 z M 180.31854,593.40513 L 190.94149,593.40513 L 200.68682,545.97997 L 200.89868,545.97997 L 211.09798,593.40513 L 221.08536,593.40513 L 234.82566,535.2964 L 225.32249,535.2964 L 216.33377,582.81248 L 216.09167,582.81248 L 206.43714,535.2964 L 195.69307,535.2964 L 185.82675,582.81248 L 185.64514,582.81248 L 176.29326,535.2964 L 166.75984,535.2964 L 180.31854,593.40513 z M 239.97071,593.40513 L 249.92785,593.40513 L 249.92785,581.93468 L 239.97071,581.93468 L 239.97071,593.40513 z M 263.94056,612.50235 L 273.02002,612.50235 L 273.02002,586.83769 L 273.26212,586.83769 C 275.28989,591.83139 280.19283,594.94868 285.39838,594.94868 C 300.47032,594.94868 304.40479,576.54758 304.40479,563.29148 C 304.40479,546.04047 299.16893,533.78315 285.39838,533.78315 C 279.07299,533.78315 274.01875,538.14134 272.83841,542.49946 L 272.62655,542.49946 L 272.62655,535.2964 L 263.94056,535.2964 L 263.94056,612.50235 z M 272.5055,564.38107 C 272.5055,551.15528 274.1398,541.62179 284.21805,541.62179 C 292.662,541.62179 294.81081,550.51971 294.81081,563.29148 C 294.81081,578.24238 292.662,587.17054 284.21805,587.17054 C 274.47277,587.17054 272.5055,575.66991 272.5055,564.38107 M 352.28393,565.44036 L 352.28393,561.77823 C 352.28393,549.30912 350.64963,533.78315 332.88412,533.78315 C 315.02774,533.78315 312.18286,550.58026 312.18286,565.13769 C 312.18286,585.08228 318.14509,594.94868 332.33935,594.94868 C 348.16785,594.94868 351.86021,580.5123 351.86021,574.33827 L 342.78069,574.33827 C 342.78069,578.6964 341.57011,587.80617 332.88412,587.80617 C 321.71628,587.80617 321.71628,574.33827 321.71628,565.44036 L 352.28393,565.44036 z M 322.04918,558.29778 L 322.04918,556.14897 C 322.04918,552.69883 323.16902,540.98628 332.6722,540.98628 C 340.72274,540.98628 342.78069,548.64331 342.78069,555.15024 L 342.78069,558.29778 L 322.04918,558.29778 z M 400.52622,535.2964 L 391.90072,535.2964 L 391.90072,542.68107 L 391.62831,542.68107 C 390.44804,538.14134 385.33323,533.78315 379.0684,533.78315 C 364.32931,533.78315 360.12249,548.64331 360.12249,564.38107 C 360.12249,572.06841 361.18177,593.40513 378.06961,593.40513 C 383.81999,593.40513 389.23739,590.49969 391.20459,585.62711 L 391.4467,585.62711 L 391.4467,593.22352 C 391.4467,597.21855 391.90072,606.23746 380.15787,606.23746 C 375.40635,606.23746 371.29027,604.1492 370.80606,598.85284 L 361.7266,598.85284 C 363.23984,613.38003 377.22225,613.38003 380.76325,613.38003 C 392.50598,613.38003 400.52622,607.11513 400.52622,589.74313 L 400.52622,535.2964 z M 380.27898,541.62179 C 389.99401,541.62179 391.96128,553.12248 391.96128,564.38107 C 391.96128,576.27517 389.99401,585.62711 380.15787,585.62711 C 371.07847,585.62711 369.65597,573.82376 369.65597,564.38107 C 369.65597,550.51971 371.80479,541.62179 380.27898,541.62179 M 413.05594,526.4591 L 422.1354,526.4591 L 422.1354,516.01762 L 413.05594,516.01762 L 413.05594,526.4591 z M 413.05594,593.40513 L 422.1354,593.40513 L 422.1354,535.2964 L 413.05594,535.2964 L 413.05594,593.40513 z M 436.66257,593.40513 L 446.64995,593.40513 L 446.64995,581.93468 L 436.66257,581.93468 L 436.66257,593.40513 z M 461.17712,526.4591 L 470.28689,526.4591 L 470.28689,516.01762 L 461.17712,516.01762 L 461.17712,526.4591 z M 461.17712,593.40513 L 470.28689,593.40513 L 470.28689,535.2964 L 461.17712,535.2964 L 461.17712,593.40513 z M 482.72581,593.40513 L 491.80533,593.40513 L 491.80533,553.30409 C 491.80533,544.8602 498.46356,541.62179 503.33626,541.62179 C 511.53798,541.62179 511.9012,548.88541 511.9012,553.30409 L 511.9012,593.40513 L 521.01097,593.40513 L 521.01097,552.21456 C 521.01097,545.4049 521.01097,533.78315 505.69693,533.78315 C 500.09785,533.78315 493.98439,536.83995 491.62372,542.13624 L 491.38155,542.13624 L 491.38155,535.2964 L 482.72581,535.2964 L 482.72581,593.40513 z M 535.65913,593.40513 L 544.7689,593.40513 L 544.7689,542.49946 L 554.72609,542.49946 L 554.72609,535.2964 L 544.7689,535.2964 L 544.7689,528.48686 C 544.7689,524.49183 546.70585,522.97859 550.64032,522.97859 L 554.8169,522.97859 L 554.8169,515.17026 L 548.24934,515.17026 C 539.44236,515.17026 535.65913,519.70993 535.65913,528.48686 L 535.65913,535.2964 L 527.21524,535.2964 L 527.21524,542.49946 L 535.65913,542.49946 L 535.65913,593.40513 z M 578.90773,587.80617 C 569.58617,587.80617 567.77021,576.94099 567.77021,564.38107 C 567.77021,551.79085 569.70716,540.98628 578.90773,540.98628 C 588.65307,540.98628 590.49929,551.79085 590.49929,564.38107 C 590.49929,576.94099 588.53202,587.80617 578.90773,587.80617 M 558.20654,564.38107 C 558.20654,580.78472 562.32262,594.94868 579.11965,594.94868 C 595.79558,594.94868 600.03271,580.78472 600.03271,564.38107 C 600.03271,548.00774 595.91669,533.78315 579.11965,533.78315 C 562.44367,533.78315 558.20654,548.00774 558.20654,564.38107"
     id="path28023"
     style="fill:#ffffff;fill-opacity:1;fill-rule:nonzero;stroke:none" />
  <path
     d="M 600.91038,61.01417 L 595.0692,61.01417 L 595.0692,32.68618 L 594.88759,32.68618 L 584.96071,61.01417 L 580.17894,61.01417 L 570.73626,32.68618 L 570.52434,32.68618 L 570.52434,61.01417 L 564.71347,61.01417 L 564.71347,24.99885 L 573.9746,24.99885 L 582.93301,51.78335 L 583.08437,51.78335 L 591.83086,24.99885 L 600.91038,24.99885 L 600.91038,61.01417 z M 560.53696,24.99885 L 560.53696,29.65963 L 550.67057,29.65963 L 550.67057,61.01417 L 544.82945,61.01417 L 544.82945,29.65963 L 534.93282,29.65963 L 534.93282,24.99885 L 560.53696,24.99885 z"
     id="path29585"
     style="fill:#1e1c1c;fill-opacity:1;fill-rule:nonzero;stroke:none" />
  <path
     d="M 235.15857,141.85188 L 235.15857,102.96142 L 239.24434,103.11272 C 256.49534,103.11272 267.99602,92.97397 267.99602,75.42024 C 267.99602,45.00399 239.84966,47.42516 235.91519,47.42516 L 216.54563,47.42516 L 216.54563,141.85188 L 235.15857,141.85188 z M 235.15857,62.86033 L 238.63908,62.86033 C 246.65926,62.86033 249.38308,68.4594 249.38308,75.11764 C 249.38308,84.80243 244.23809,88.13158 235.15857,87.82898 L 235.15857,62.86033 z M 277.49926,47.42516 L 277.49926,141.85188 L 315.3304,141.85188 L 315.3304,124.29821 L 296.11219,124.29821 L 296.11219,103.11272 L 312.75787,103.11272 L 312.75787,85.55905 L 296.11219,85.55905 L 296.11219,64.97889 L 315.02774,64.97889 L 315.02774,47.42516 L 277.49926,47.42516 z M 356.5513,89.34216 L 356.5513,106.74454 L 368.50595,106.74454 C 368.50595,113.25154 366.99264,126.11411 357.45916,126.11411 C 343.68867,126.11411 343.08341,104.47461 343.08341,94.63852 C 343.08341,85.86171 344.29393,62.55773 357.00526,63.31429 C 364.11752,63.31429 365.6307,70.57785 366.53868,75.42024 L 384.69766,68.4594 C 380.61183,54.99138 371.22977,46.06328 356.8539,46.06328 C 330.22078,46.06328 323.25983,73.4531 323.25983,95.24384 C 323.25983,116.12666 331.43137,143.36518 356.8539,143.36518 C 382.2765,143.36518 387.11889,116.73199 387.11889,96.60579 L 387.11889,89.34216 L 356.5513,89.34216 z M 397.07608,47.42516 L 397.07608,141.85188 L 415.68896,141.85188 L 415.68896,47.42516 L 397.07608,47.42516 z"
     id="path28051"
     style="fill:#1e1c1c;fill-opacity:1;fill-rule:nonzero;stroke:none" />
  <path
     d="M 222.05384,176.68687 C 173.32734,176.68687 124.90343,215.27466 124.90343,318.02423 C 124.90343,420.62249 173.32734,459.21028 222.05384,459.21028 C 270.7804,459.21028 319.20431,420.62249 319.20431,318.02423 C 319.20431,215.27466 270.7804,176.68687 222.05384,176.68687 z M 183.16341,318.02423 C 183.16341,293.66095 185.73594,226.77536 222.05384,226.77536 C 258.3718,226.77536 260.94432,293.66095 260.94432,318.02423 C 260.94432,339.81497 258.3718,409.12179 222.05384,409.12179 C 185.73594,409.12179 183.16341,339.81497 183.16341,318.02423 z M 348.1376,181.07524 L 348.1376,454.82185 L 402.76584,454.82185 L 402.76584,315.4517 L 403.52246,315.4517 L 453.76221,454.82185 L 511.41699,454.82185 L 453.76221,307.43152 L 504.75864,181.07524 L 449.07118,181.07524 L 403.52246,303.49704 L 402.76584,303.49704 L 402.76584,181.07524 L 348.1376,181.07524 z"
     id="path28059"
     style="fill:#1e1c1c;fill-opacity:1;fill-rule:nonzero;stroke:none" />
</svg>
