<?xml version="1.0" encoding="UTF-8" standalone="no"?>
<!DOCTYPE svg PUBLIC "-//W3C//DTD SVG 1.1//EN" "http://www.w3.org/Graphics/SVG/1.1/DTD/svg11.dtd">
<svg width="100%" height="100%" viewBox="0 0 1952 2250" version="1.1" xmlns="http://www.w3.org/2000/svg" xmlns:xlink="http://www.w3.org/1999/xlink" xml:space="preserve" xmlns:serif="http://www.serif.com/" style="fill-rule:evenodd;clip-rule:evenodd;stroke-linejoin:round;stroke-miterlimit:2;">
    <g transform="matrix(1,0,0,1,-824.388,-4633.52)">
        <g transform="matrix(5.91286,0,0,5.91286,-2884.26,-3386.82)">
            <g id="Made-By-Humans" serif:id="Made By Humans" transform="matrix(3.65126,0,0,3.65126,-2165.59,-3952.26)">
                <g transform="matrix(0.169123,0,0,0.169123,-310.22,980.058)">
                    <path d="M6712.61,2988.88L6735.34,2988.88L6735.34,2965.25C6735.34,2963.79 6735.28,2961.89 6735.16,2959.57C6735.07,2957.89 6734.89,2956.33 6734.62,2954.87L6754.76,2988.88L6778.03,2988.88L6778.03,2923.36L6755.34,2923.36L6755.34,2945.34C6755.34,2947.72 6755.4,2950.14 6755.52,2952.59C6755.61,2954.38 6755.79,2956.06 6756.06,2957.64L6735.7,2923.36L6712.61,2923.36L6712.61,2988.88ZM6483.32,2958.89C6483.32,2963.73 6483.6,2967.58 6484.21,2970.44C6484.88,2973.55 6485.85,2976.05 6487.07,2977.96C6489.72,2982.08 6493.3,2985.19 6497.77,2987.31C6502.42,2989.51 6507.63,2990.62 6513.39,2990.62C6519.11,2990.62 6524.3,2989.51 6528.96,2987.31C6533.43,2985.19 6537,2982.07 6539.65,2977.96C6540.97,2976.05 6541.95,2973.51 6542.61,2970.35C6543.2,2967.49 6543.5,2963.67 6543.5,2958.89L6543.5,2923.36L6519.96,2923.36L6519.96,2959.07C6519.96,2963.1 6519.44,2965.95 6518.4,2967.62C6517.41,2969.2 6515.74,2969.99 6513.39,2969.99C6511,2969.99 6509.34,2969.19 6508.33,2967.62C6507.36,2966.12 6506.85,2963.28 6506.85,2959.07L6506.85,2923.36L6483.32,2923.36L6483.32,2958.89ZM6793.17,2908.6L6816.15,2908.6L6816.15,2880.55L6838.17,2845.13L6812.33,2845.13L6807.09,2857.44C6807.06,2857.5 6807.02,2857.6 6806.98,2857.73C6806.93,2857.86 6806.85,2858.03 6806.74,2858.27C6805.82,2860.31 6805.37,2861.82 6805.14,2862.69C6805.11,2862.63 6805.09,2862.57 6805.07,2862.52C6805.06,2862.46 6805.02,2862.37 6804.96,2862.26C6804.59,2860.9 6804.02,2859.29 6803.27,2857.44L6797.94,2845.13L6771.93,2845.13L6793.17,2880.55L6793.17,2908.6ZM6410.15,2988.88L6433.73,2988.88L6433.73,2965.79L6448.1,2965.79L6448.1,2988.88L6471.64,2988.88L6471.64,2923.36L6448.1,2923.36L6448.1,2945.16L6433.73,2945.16L6433.73,2923.36L6410.15,2923.36L6410.15,2988.88ZM6834.23,2954.6C6831.67,2951.44 6828.15,2949.25 6823.63,2948.38C6822.91,2948.24 6822.12,2948.07 6821.26,2947.8C6814.69,2946.45 6811.41,2944.84 6811.41,2942.96C6811.41,2942.01 6811.83,2941.24 6812.71,2940.68C6813.62,2940.1 6814.92,2939.83 6816.56,2939.83C6818.53,2939.83 6820.76,2940.26 6823.27,2941.13C6825.39,2941.97 6827.64,2943.25 6830.03,2944.98L6837.19,2927.84C6833.58,2925.84 6829.91,2924.35 6826.18,2923.36C6822.66,2922.38 6818.96,2921.89 6815.08,2921.89C6806.94,2921.89 6800.34,2924.08 6795.3,2928.47C6790.23,2933 6787.69,2938.74 6787.69,2945.69C6787.69,2950.26 6788.96,2954.06 6791.54,2957.06C6794.15,2960.09 6797.91,2962.26 6802.82,2963.41C6804.16,2963.73 6805.33,2963.93 6806.31,2964.13C6810.95,2965.06 6813.24,2966.55 6813.24,2968.34C6813.24,2969.35 6812.81,2970.21 6811.9,2970.84C6811.02,2971.46 6809.73,2971.74 6808.05,2971.74C6805.76,2971.74 6803.32,2971.16 6800.72,2970.08C6798.22,2969.05 6795.18,2967.35 6791.63,2964.93L6784.11,2983.28C6788.38,2985.73 6792.69,2987.56 6797.05,2988.79C6801.4,2990.01 6805.68,2990.62 6809.89,2990.62C6814.01,2990.62 6817.78,2990.05 6821.21,2988.92C6824.64,2987.79 6827.67,2986.06 6830.29,2983.73C6835.55,2979.16 6838.17,2973.24 6838.17,2965.97C6838.17,2961.46 6836.86,2957.67 6834.23,2954.6ZM6567.82,2908.6L6584.6,2908.6C6591.42,2908.6 6596.96,2908.27 6601.21,2907.6C6605.43,2907 6608.84,2906 6611.44,2904.61C6616.96,2901.66 6621.19,2897.85 6624.14,2893.17C6627.03,2888.46 6628.47,2883.04 6628.47,2876.91C6628.47,2870.81 6627.03,2865.36 6624.14,2860.57C6621.19,2855.86 6616.97,2852.01 6611.44,2849.12C6608.76,2847.72 6605.37,2846.7 6601.29,2846.09C6598.92,2845.73 6596.56,2845.49 6594.2,2845.35C6591.85,2845.2 6589.21,2845.13 6586.29,2845.13L6567.82,2845.13L6567.82,2908.6ZM6590.45,2889.26L6590.45,2864.64L6591.45,2864.64C6596.13,2864.64 6599.63,2865.65 6601.94,2867.68C6604.17,2869.73 6605.28,2872.8 6605.28,2876.91C6605.28,2881.13 6604.11,2884.24 6601.77,2886.23C6599.43,2888.11 6595.66,2889.12 6590.45,2889.26ZM6638.06,2908.6L6681.02,2908.6L6681.02,2891.39L6660.43,2891.39L6660.43,2884.71L6678.63,2884.71L6678.63,2868.46L6660.43,2868.46L6660.43,2862.34L6680.5,2862.34L6680.5,2845.13L6638.06,2845.13L6638.06,2908.6ZM6787.53,3202.6L6740.92,3249.21L6731.19,3239.48L6834.14,3136.53C6836.72,3133.95 6838.17,3130.45 6838.17,3126.8C6838.17,3123.15 6836.72,3119.65 6834.14,3117.07L6834.14,3117.07C6831.56,3114.49 6828.06,3113.04 6824.41,3113.04C6820.76,3113.04 6817.26,3114.49 6814.68,3117.07L6711.73,3220.02L6702,3210.29L6804.95,3107.34C6807.53,3104.76 6808.98,3101.26 6808.98,3097.61C6808.98,3093.96 6807.53,3090.46 6804.95,3087.88L6804.95,3087.88C6802.37,3085.3 6798.87,3083.85 6795.22,3083.85C6791.57,3083.85 6788.07,3085.3 6785.49,3087.88L6682.54,3190.83L6672.81,3181.1L6775.76,3078.15C6778.34,3075.57 6779.79,3072.07 6779.79,3068.42C6779.79,3064.77 6778.34,3061.27 6775.76,3058.69L6775.76,3058.69C6773.18,3056.11 6769.68,3054.66 6766.03,3054.66C6762.38,3054.66 6758.88,3056.11 6756.3,3058.69L6653.35,3161.64L6643.62,3151.91L6746.57,3048.96C6749.15,3046.38 6750.6,3042.88 6750.6,3039.23C6750.6,3035.58 6749.15,3032.08 6746.57,3029.5L6746.57,3029.5C6743.99,3026.92 6740.49,3025.47 6736.84,3025.47C6733.19,3025.47 6729.69,3026.92 6727.11,3029.5L6624.16,3132.45L6521.21,3029.5C6518.63,3026.92 6515.13,3025.47 6511.48,3025.47C6507.83,3025.47 6504.33,3026.92 6501.75,3029.5L6501.75,3029.5C6499.17,3032.08 6497.72,3035.58 6497.72,3039.23C6497.72,3042.88 6499.17,3046.38 6501.75,3048.96L6604.7,3151.91L6594.97,3161.64L6492.02,3058.69C6489.44,3056.11 6485.94,3054.66 6482.29,3054.66C6478.64,3054.66 6475.14,3056.11 6472.56,3058.69L6472.56,3058.69C6469.98,3061.27 6468.53,3064.77 6468.53,3068.42C6468.53,3072.07 6469.98,3075.57 6472.56,3078.15L6575.51,3181.1L6565.78,3190.83L6462.83,3087.88C6460.25,3085.3 6456.75,3083.85 6453.1,3083.85C6449.45,3083.85 6445.95,3085.3 6443.37,3087.88L6443.37,3087.88C6440.79,3090.46 6439.34,3093.96 6439.34,3097.61C6439.34,3101.26 6440.79,3104.76 6443.37,3107.34L6546.32,3210.29L6536.59,3220.02L6433.64,3117.07C6431.06,3114.49 6427.56,3113.04 6423.91,3113.04C6420.26,3113.04 6416.76,3114.49 6414.18,3117.07L6414.18,3117.07C6411.6,3119.65 6410.15,3123.15 6410.15,3126.8C6410.15,3130.45 6411.6,3133.95 6414.18,3136.53L6517.14,3239.48L6507.4,3249.21L6460.79,3202.6C6455.42,3197.22 6446.71,3197.22 6441.34,3202.6L6441.33,3202.6C6435.96,3207.97 6435.96,3216.68 6441.33,3222.06L6556.05,3336.78C6574.12,3354.84 6598.62,3364.99 6624.16,3364.99C6649.71,3364.99 6674.2,3354.84 6692.27,3336.78L6806.99,3222.06C6812.36,3216.68 6812.36,3207.97 6806.99,3202.6L6806.99,3202.6C6801.61,3197.22 6792.9,3197.22 6787.53,3202.6ZM6624.16,3171.37L6672.81,3220.02C6699.68,3246.89 6699.68,3290.45 6672.81,3317.32C6645.94,3344.18 6602.38,3344.18 6575.51,3317.32C6548.65,3290.45 6548.65,3246.89 6575.51,3220.02L6624.16,3171.37ZM6624.16,3190.83L6585.24,3229.75C6574.92,3240.07 6569.12,3254.07 6569.12,3268.67C6569.12,3283.26 6574.92,3297.26 6585.24,3307.59C6595.56,3317.91 6609.56,3323.71 6624.16,3323.71C6638.76,3323.71 6652.76,3317.91 6663.08,3307.59C6673.4,3297.26 6679.2,3283.26 6679.2,3268.67C6679.2,3254.07 6673.4,3240.07 6663.08,3229.75L6624.16,3190.83ZM6624.16,3229.75L6643.62,3249.21C6648.78,3254.37 6651.68,3261.37 6651.68,3268.67C6651.68,3275.97 6648.78,3282.97 6643.62,3288.13C6638.46,3293.29 6631.46,3296.19 6624.16,3296.19C6616.86,3296.19 6609.86,3293.29 6604.7,3288.13C6599.54,3282.97 6596.64,3275.97 6596.64,3268.67C6596.64,3261.37 6599.54,3254.37 6604.7,3249.21L6624.16,3229.75ZM6720.69,2908.6L6750.99,2908.6C6758.73,2908.6 6764.61,2907.1 6768.63,2904.09C6772.65,2901.03 6774.66,2896.55 6774.66,2890.65C6774.66,2886.43 6773.6,2883.09 6771.49,2880.64C6769.44,2878.15 6766.23,2876.46 6761.87,2875.57C6765.08,2874.84 6767.48,2873.33 6769.15,2871.06C6770.87,2868.73 6771.75,2865.87 6771.75,2862.43C6771.75,2857 6769.95,2852.73 6766.34,2849.64C6764.51,2848.14 6762.35,2847.01 6759.85,2846.26C6757.35,2845.51 6754.43,2845.13 6751.07,2845.13L6720.69,2845.13L6720.69,2908.6ZM6742.1,2860.22L6745.09,2860.22C6747,2860.22 6748.43,2860.59 6749.38,2861.35C6750.31,2862.07 6750.77,2863.17 6750.77,2864.64C6750.77,2866.09 6750.31,2867.18 6749.38,2867.93C6748.37,2868.72 6746.94,2869.11 6745.09,2869.11L6742.1,2869.11L6742.1,2860.22ZM6742.1,2882.76L6745.92,2882.76C6748.23,2882.76 6750.01,2883.21 6751.25,2884.11C6752.43,2884.91 6753.03,2886.16 6753.03,2887.83C6753.03,2889.37 6752.43,2890.61 6751.25,2891.56C6749.95,2892.46 6748.17,2892.91 6745.92,2892.91L6742.1,2892.91L6742.1,2882.76ZM6518.58,2908.6L6520.53,2900.62L6537.74,2900.62L6539.78,2908.6L6564.31,2908.6L6542.12,2845.13L6516.71,2845.13L6495.55,2904.47L6486.15,2845.13L6462.65,2845.13L6457.93,2860.57C6456.63,2864.76 6455.73,2868.17 6455.15,2870.8C6454.49,2873.81 6453.94,2876.66 6453.59,2879.38L6453.2,2879.38C6452.8,2875.42 6451.63,2869.97 6449.69,2863.04C6449.31,2861.85 6449.1,2861.12 6449.04,2860.83L6444.53,2845.13L6420.99,2845.13L6410.15,2908.6L6432.52,2908.6L6435.3,2883.46C6435.53,2880.85 6435.73,2878.93 6435.82,2877.69C6435.9,2876.56 6436.02,2874.61 6436.25,2871.84C6436.42,2873.14 6436.79,2875.06 6437.33,2877.6C6437.78,2879.68 6438.36,2881.88 6439.11,2884.19L6446.4,2908.6L6459.96,2908.6L6467.25,2884.19C6468.09,2881.39 6468.69,2879.19 6469.02,2877.6C6469.44,2875.67 6469.79,2873.74 6470.11,2871.84C6470.17,2873.25 6470.32,2875.18 6470.54,2877.6C6470.63,2878.56 6470.72,2879.53 6470.8,2880.51L6471.06,2883.46L6473.84,2908.6L6518.58,2908.6ZM6524.34,2885.54L6526.29,2878.34C6527.19,2875.05 6527.84,2872.23 6528.24,2869.89C6528.56,2868.18 6528.76,2866.35 6528.85,2864.38L6529.33,2864.38C6529.41,2866.35 6529.62,2868.18 6529.94,2869.89C6530.25,2871.79 6530.9,2874.61 6531.89,2878.34L6533.84,2885.54L6524.34,2885.54ZM6661.77,2988.88L6663.79,2980.64L6681.55,2980.64L6683.65,2988.88L6708.98,2988.88L6686.07,2923.36L6659.85,2923.36L6638.01,2984.62L6628.3,2923.36L6604.05,2923.36L6599.17,2939.3C6597.83,2943.62 6596.9,2947.15 6596.31,2949.86C6595.62,2952.97 6595.05,2955.91 6594.69,2958.72L6594.29,2958.72C6593.87,2954.63 6592.67,2949.01 6590.67,2941.85C6590.28,2940.62 6590.06,2939.86 6590,2939.56L6585.34,2923.36L6561.04,2923.36L6549.86,2988.88L6572.95,2988.88L6575.81,2962.92C6576.05,2960.24 6576.26,2958.26 6576.35,2956.97C6576.43,2955.81 6576.56,2953.79 6576.8,2950.93C6576.97,2952.27 6577.36,2954.25 6577.91,2956.88C6578.37,2959.03 6578.97,2961.3 6579.75,2963.68L6587.27,2988.88L6601.27,2988.88L6608.79,2963.68C6609.65,2960.79 6610.27,2958.52 6610.62,2956.88C6611.05,2954.88 6611.41,2952.9 6611.74,2950.93C6611.8,2952.39 6611.96,2954.37 6612.19,2956.88C6612.28,2957.87 6612.37,2958.86 6612.46,2959.88L6612.73,2962.92L6615.59,2988.88L6661.77,2988.88ZM6667.72,2965.07L6669.74,2957.64C6670.66,2954.24 6671.33,2951.33 6671.75,2948.91C6672.08,2947.16 6672.29,2945.26 6672.38,2943.23L6672.87,2943.23C6672.96,2945.26 6673.17,2947.16 6673.5,2948.91C6673.82,2950.88 6674.49,2953.79 6675.51,2957.64L6677.52,2965.07L6667.72,2965.07Z" style="fill:rgb(35,31,32);"/>
                </g>
                <g transform="matrix(0.169123,0,0,0.377218,343.022,203.897)">
                    <path d="M3028.83,3335.56L3028.83,3470.31C3028.83,3502.08 3000.68,3532.55 2950.57,3555.02C2900.46,3577.48 2832.49,3590.11 2761.63,3590.11C2690.76,3590.11 2622.8,3577.48 2572.69,3555.02C2522.58,3532.55 2494.43,3502.08 2494.43,3470.31L2494.43,3335.56C2494.43,3323.56 2516.14,3313.83 2542.91,3313.83L2980.35,3313.83C3007.12,3313.83 3028.83,3323.56 3028.83,3335.56ZM3012.16,3335.56C3012.16,3327.68 2997.91,3321.3 2980.35,3321.3L2542.91,3321.3C2525.34,3321.3 2511.1,3327.68 2511.1,3335.56L2511.1,3470.31C2511.1,3500.1 2537.49,3528.67 2584.47,3549.73C2631.46,3570.8 2695.18,3582.63 2761.63,3582.63C2828.07,3582.63 2891.8,3570.8 2938.78,3549.73C2985.76,3528.67 3012.16,3500.1 3012.16,3470.31L3012.16,3335.56Z" style="fill:rgb(35,31,32);"/>
                </g>
            </g>
        </g>
    </g>
</svg>
