<svg height="800" viewBox="0 0 800 800" width="800" xmlns="http://www.w3.org/2000/svg"><g fill="none" fill-rule="evenodd"><rect fill="#313300" height="780" rx="150" stroke="#ffd700" stroke-width="20" width="780" x="10" y="10"/><path d="m398.436142 100.018801c-1.031194.15507-2.036518.472949-2.969528.938171l-189.996043 95.021178c-3.313237 1.685068-5.522965 5.347174-5.469626 9.063467v205.193345c0 4.807031 2.724981 6.926449 6.720343 9.37641l188.593419 99.242284c2.873924 1.524824 6.502421 1.524824 9.373765 0 63.390677-33.152877 126.626537-67.028238 189.996043-100.02299 3.649205-2.026196 5.314542-4.907861 5.314542-8.751184v-205.041173c.053296-3.719006-2.156388-7.378333-5.469625-9.063467l-189.996043-95.021178c-.25586-.113712-.516887-.219676-.780507-.312719h-.15507c-.25586-.113719-.516887-.219676-.780507-.312719h-.155063c-.310132-.067194-.622851-.118886-.93817-.15507-.310133-.067193-.622852-.118885-.938171-.157649-.312719-.015507-.625431-.015507-.93817 0-.364405-.0206759-.728836-.0206759-1.093187 0h-.155069-.155063zm-8.438241 26.255539v177.69c-13.2634 6.825222-27.881127 14.759974-39.999271 20.941445v-124.866641c.043935-5.680562-5.613408-10.712212-11.250106-10.001637-1.020872.105964-2.026196.369571-2.969527.780507l-64.998403 30.005574c-3.47606 1.620428-5.838225 5.388525-5.781392 9.223578v139.713286l-45.000421 23.755956v-182.22868zm20.000628 0 169.995415 85.017556v182.22868l-169.995415-89.54962zm28.906631 53.76153c-4.86135.534975-8.934452 5.109455-8.906151 10.001637v65.014281c.031162 3.582051 2.147818 7.071344 5.313713 8.751185l95.001329 50.011494c6.037239 3.204732 14.630298-1.917625 14.687429-8.751184v-65.014282c.025612-3.633723-2.10139-7.205651-5.313797-8.908649l-95.001329-50.011494c-1.760029-.930363-3.801708-1.31549-5.781393-1.093187zm11.092641 26.410356 24.999131 13.129092v42.508778l-24.999131-13.129092zm-119.997153 9.221593v119.871446l-45.000421 23.753309v-122.835482zm165.00022 14.535025 30.000281 15.785477v42.508778l-30.000281-15.785477zm-196.089519 34.693779c-4.913023.540149-9.011861 5.21538-8.906003 10.159101v20.003275c-.074948 5.285181 4.716589 10.143885 9.998991 10.143885s10.074415-4.861351 9.998991-10.143885v-20.003275c.121466-5.672821-5.453165-10.779696-11.092641-10.159101zm101.088189 56.417914 24.999132 13.129093-27.498052 14.847307-24.844313-13.596854zm46.248228 24.379198 22.655028 11.877978-27.656178 15.315069-22.655028-12.190922zm-95.00133 1.25085 25.156596 13.751672-22.655029 12.190922-25.156595-13.909137c7.510656-4.088583 15.090781-8.047887 22.655028-12.033457zm138.747328 21.722151c9.226224 4.706267 18.460388 9.673476 27.656178 14.535025l-28.281404 15.782831-27.343234-14.689843c9.322158-5.186931 18.716433-10.376773 27.96846-15.628013zm-182.652114 1.405932 25.624357 14.222081-27.188415 14.689843-25.779838-14.532379zm90.158306 2.031357 22.967973 12.34574-22.967973 12.813502-22.967972-12.813502zm141.407021 22.347378c9.957971 5.088747 19.802144 10.399929 29.687337 15.628013l-29.687337 15.628013-28.594348-15.473195zm-280.30652 1.250849 26.092781 14.535025-26.092781 14.222081-27.188416-14.376899zm95.153501 0 23.280916 12.970967-27.03029 15.002787-23.593199-13.126446zm87.498613 0 27.343234 14.847308-23.593199 13.126446-27.03029-15.002787zm-43.749307 24.379198 27.03029 15.002787-27.03029 15.002787-27.03029-15.002787zm-92.030677 1.718678 23.906143 13.28391-24.373905 13.596855-24.999131-13.129093zm184.061354 0 27.968461 15.160251-24.999131 13.126446c-8.825947-4.941472-17.943667-10.01487-26.875472-15.002787zm-139.686821 24.69148 27.03029 15.002787-23.125437 12.813502-27.810996-14.535025zm95.153501 0 26.405063 14.689843-27.656177 14.535025-25.624358-14.222081zm-47.499342 26.410356 24.999131 13.909137-22.50021 11.877978-25.156596-13.129092z" fill="#fff" fill-rule="nonzero"/></g></svg>