<?xml version="1.0" encoding="utf-8"?>
<!-- Generator: Adobe Illustrator 16.0.0, SVG Export Plug-In . SVG Version: 6.00 Build 0)  -->
<!DOCTYPE svg PUBLIC "-//W3C//DTD SVG 1.1//EN" "http://www.w3.org/Graphics/SVG/1.1/DTD/svg11.dtd">
<svg version="1.1" id="Layer_1" xmlns="http://www.w3.org/2000/svg" xmlns:xlink="http://www.w3.org/1999/xlink" x="0px" y="0px"
	 width="20px" height="20px" viewBox="0 0 20 20" enable-background="new 0 0 20 20" xml:space="preserve">
<title>browser</title>
<g>
	<path fill="#DD3333" d="M18,2H2C0.896,2,0,2.896,0,4v12c0,1.104,0.896,2,2,2h16c1.104,0,2-0.896,2-2V4C20,2.896,19.104,2,18,2z
		 M4,3.5c0.829,0,1.5,0.671,1.5,1.5S4.829,6.5,4,6.5S2.5,5.829,2.5,5S3.171,3.5,4,3.5z M18,16H2V8h16V16z"/>
</g>
</svg>
